<svg width="746" height="746" viewBox="0 0 746 746" fill="none" xmlns="http://www.w3.org/2000/svg">
<g clip-path="url(#clip0_341_169)">
<circle cx="372.919" cy="372.919" r="373.282" fill="white"/>
<g clip-path="url(#clip1_341_169)">
<line x1="527.897" y1="595.919" x2="567.897" y2="665.201" stroke="black" stroke-width="20"/>
<line x1="554.237" y1="566.259" x2="623.519" y2="606.259" stroke="black" stroke-width="20"/>
<line x1="566.237" y1="528.919" x2="646.237" y2="528.919" stroke="black" stroke-width="20"/>
<path d="M40.2368 735.919V225.919L147.237 174.919L354.237 54.9194L315.737 184.919L380.737 234.919L437.237 368.919L535.237 408.919H551.237L563.237 425.919L560.237 446.919H551.237L510.737 505.919L464.737 494.419L411.237 484.419L375.237 499.919L464.737 553.919L411.237 577.919L315.737 538.419L283.237 531.419L241.737 538.419L40.2368 798.919V735.919Z" fill="black" stroke="black"/>
<path d="M349.237 298.919L302.237 303.919L339.237 330.919H359.237L349.237 298.919Z" fill="#FFFEFE" stroke="white"/>
</g>
</g>
<defs>
<clipPath id="clip0_341_169">
<rect width="746" height="746" fill="white"/>
</clipPath>
<clipPath id="clip1_341_169">
<path d="M40.2368 357.919C40.2368 190.577 175.895 54.9194 343.237 54.9194V54.9194C510.579 54.9194 646.237 190.577 646.237 357.919V690.919H358.237C182.61 690.919 40.2368 548.546 40.2368 372.919V357.919Z" fill="white"/>
</clipPath>
</defs>
</svg>
