<svg width="607" height="747" viewBox="0 0 607 747" fill="none" xmlns="http://www.w3.org/2000/svg">
<line x1="488.317" y1="542.104" x2="528.317" y2="611.386" stroke="black" stroke-width="20"/>
<line x1="514.657" y1="512.444" x2="583.939" y2="552.443" stroke="black" stroke-width="20"/>
<line x1="526.657" y1="475.104" x2="606.657" y2="475.104" stroke="black" stroke-width="20"/>
<path d="M0.656982 682.104V172.104L107.657 121.104L314.657 1.10376L276.157 131.104L341.157 181.104L397.657 315.104L495.657 355.104H511.657L523.657 372.104L520.657 393.104H511.657L471.157 452.104L425.157 440.604L371.657 430.604L335.657 446.104L425.157 500.104L371.657 524.104L276.157 484.604L243.657 477.604L202.157 484.604L0.656982 745.104V682.104Z" fill="black" stroke="black"/>
<path d="M309.657 245.104L262.657 250.104L299.657 277.104H319.657L309.657 245.104Z" fill="#FFFEFE" stroke="white"/>
</svg>
